<svg xmlns="http://www.w3.org/2000/svg" xmlns:xlink="http://www.w3.org/1999/xlink" width="500" zoomAndPan="magnify" viewBox="0 0 375 374.999991" height="500" preserveAspectRatio="xMidYMid meet" version="1.0"><defs><g/><clipPath id="0084d9dfe6"><path d="M 125 201 L 340.246094 201 L 340.246094 332 L 125 332 Z M 125 201 " clip-rule="nonzero"/></clipPath><clipPath id="936ede953d"><path d="M 35 28.644531 L 316 28.644531 L 316 346.644531 L 35 346.644531 Z M 35 28.644531 " clip-rule="nonzero"/></clipPath></defs><g clip-path="url(#0084d9dfe6)"><path fill="#ff7e0e" d="M 281.917969 278.132812 C 291.457031 261.457031 296.90625 242.144531 296.90625 221.5625 C 296.90625 214.757812 296.308594 208.09375 295.167969 201.621094 C 290.546875 227.296875 276.898438 249.84375 257.613281 265.835938 C 246.453125 275.085938 229.84375 273.210938 221.109375 261.640625 L 204.816406 240.046875 C 202.105469 236.453125 197.863281 234.34375 193.363281 234.34375 L 131.265625 234.34375 C 131.253906 234.34375 131.242188 234.347656 131.226562 234.347656 C 126.988281 234.375 124.242188 238.84375 126.148438 242.640625 L 128.621094 247.5625 C 133.214844 256.714844 142.261719 262.796875 152.46875 263.601562 L 156.148438 263.890625 L 172.25 265.160156 C 176.808594 265.519531 180.917969 268.039062 183.304688 271.941406 L 190.609375 283.886719 L 194.699219 290.574219 L 217.605469 328.042969 C 218.011719 328.710938 218.523438 329.296875 219.105469 329.78125 C 220.785156 331.1875 223.058594 331.769531 225.265625 331.226562 C 225.28125 331.222656 225.296875 331.21875 225.3125 331.214844 C 284.730469 316.550781 330.507812 267.261719 340.007812 205.980469 C 331.664062 237.417969 310.246094 263.53125 281.917969 278.132812 " fill-opacity="1" fill-rule="nonzero"/></g><g clip-path="url(#936ede953d)"><path fill="#1b75d0" d="M 178.921875 274.621094 C 177.402344 272.128906 174.757812 270.507812 171.847656 270.277344 L 152.066406 268.71875 C 140.140625 267.78125 129.398438 260.558594 124.03125 249.867188 L 121.6875 245.207031 C 120.023438 241.890625 119.988281 237.925781 121.824219 234.703125 C 123.71875 231.375 127.136719 229.332031 130.925781 229.214844 L 131.265625 229.207031 L 151.148438 229.207031 C 144.667969 218.976562 132.988281 213.21875 120.898438 214.351562 L 100.238281 216.28125 C 91.390625 217.105469 83.4375 211.007812 81.808594 202.269531 C 80.601562 195.796875 79.96875 189.117188 79.96875 182.289062 C 79.96875 147.679688 96.179688 116.855469 121.421875 96.992188 C 96.414062 113.460938 76.953125 137.660156 66.453125 166.195312 C 75.914062 97.457031 134.875 44.507812 206.214844 44.507812 C 250.375 44.507812 289.792969 64.796875 315.664062 96.5625 C 288.171875 55.839844 241.644531 29.03125 188.84375 28.890625 C 104.328125 28.671875 35.164062 97.539062 35.039062 182.058594 C 34.996094 211.808594 43.433594 239.585938 58.050781 263.117188 C 58.359375 263.613281 58.664062 264.113281 58.980469 264.605469 L 79.453125 261.136719 C 88.601562 259.585938 96.128906 268.429688 93.019531 277.171875 C 92.933594 277.410156 92.878906 277.542969 92.878906 277.542969 C 106.0625 282.335938 103.835938 295.175781 103.835938 295.175781 C 115.476562 300.484375 110.683594 311.441406 110.683594 311.441406 C 114.800781 313.144531 116.242188 316.472656 116.617188 317.558594 C 116.808594 318.117188 117.015625 318.664062 117.230469 319.214844 L 125.191406 339.644531 C 126.5625 343.15625 130.765625 346.03125 134.535156 346.03125 C 139.292969 346.03125 142.585938 341.277344 140.914062 336.820312 L 137.1875 326.902344 L 132.214844 313.671875 C 131.871094 312.75 132.5 311.738281 133.507812 311.664062 C 134.164062 311.613281 134.765625 312.042969 135.015625 312.652344 L 141.546875 328.378906 L 146.382812 340.019531 C 148.046875 344.023438 152.441406 346.324219 156.609375 345.109375 C 161.597656 343.648438 164.085938 338.0625 161.828125 333.378906 C 161.828125 333.378906 161.824219 333.371094 161.824219 333.367188 L 149.863281 308.664062 C 149.351562 307.601562 150.050781 306.355469 151.222656 306.242188 C 151.902344 306.175781 152.554688 306.527344 152.875 307.125 L 167.429688 334.25 L 169.234375 337.613281 C 171.011719 340.929688 174.910156 342.65625 178.484375 341.472656 C 181.261719 340.554688 183.109375 338.230469 183.601562 335.601562 C 183.898438 334 183.695312 332.289062 182.878906 330.710938 L 171.492188 308.636719 C 170.992188 307.664062 171.359375 306.417969 172.367188 306 C 173.261719 305.628906 174.265625 306.011719 174.703125 306.835938 L 187.574219 331.152344 C 188.613281 333.117188 190.164062 334.640625 191.976562 335.644531 C 194.992188 337.320312 198.734375 337.554688 202.074219 335.980469 C 202.71875 335.679688 203.308594 335.3125 203.859375 334.910156 C 208.425781 331.597656 209.855469 325.21875 206.796875 320.207031 L 178.921875 274.621094 " fill-opacity="1" fill-rule="nonzero"/></g><path fill="#ff7e0e" d="M 67.644531 283.839844 L 83.75 281.167969 C 88.585938 280.367188 91.851562 275.800781 91.050781 270.964844 C 90.25 266.132812 85.679688 262.863281 80.847656 263.664062 L 64.742188 266.335938 C 59.910156 267.136719 56.640625 271.707031 57.441406 276.539062 C 58.242188 281.375 62.8125 284.640625 67.644531 283.839844 " fill-opacity="1" fill-rule="nonzero"/><path fill="#ff7e0e" d="M 99.269531 288.425781 C 98.46875 283.59375 93.898438 280.324219 89.066406 281.128906 L 67.082031 285.332031 C 62.25 286.132812 58.980469 290.699219 59.78125 295.53125 C 60.582031 300.367188 65.152344 303.636719 69.984375 302.832031 L 91.96875 298.632812 C 96.804688 297.828125 100.070312 293.261719 99.269531 288.425781 " fill-opacity="1" fill-rule="nonzero"/><path fill="#ff7e0e" d="M 106.6875 306.691406 C 105.886719 301.855469 101.320312 298.585938 96.484375 299.390625 L 80.378906 302.058594 C 75.542969 302.863281 72.277344 307.433594 73.078125 312.265625 C 73.878906 317.097656 78.449219 320.367188 83.28125 319.5625 L 99.386719 316.890625 C 104.222656 316.089844 107.488281 311.523438 106.6875 306.691406 " fill-opacity="1" fill-rule="nonzero"/><path fill="#ff7e0e" d="M 107.671875 316.511719 L 94.441406 318.617188 C 89.609375 319.417969 86.34375 323.984375 87.144531 328.820312 C 87.945312 333.652344 92.515625 336.917969 97.347656 336.121094 L 110.574219 334.011719 C 115.40625 333.210938 118.675781 328.640625 117.875 323.808594 C 117.070312 318.976562 112.503906 315.707031 107.671875 316.511719 " fill-opacity="1" fill-rule="nonzero"/><g fill="#ffffff" fill-opacity="1"><g transform="translate(173.869162, 179.160422)"><g><path d="M 4.140625 0.140625 C 3.441406 0.140625 2.832031 -0.0234375 2.3125 -0.359375 C 1.800781 -0.703125 1.40625 -1.175781 1.125 -1.78125 C 0.84375 -2.382812 0.703125 -3.078125 0.703125 -3.859375 C 0.703125 -4.648438 0.84375 -5.34375 1.125 -5.9375 C 1.40625 -6.539062 1.800781 -7.007812 2.3125 -7.34375 C 2.832031 -7.6875 3.441406 -7.859375 4.140625 -7.859375 C 4.660156 -7.859375 5.109375 -7.765625 5.484375 -7.578125 C 5.867188 -7.398438 6.257812 -7.046875 6.65625 -6.515625 L 6.65625 -10.65625 L 7.84375 -10.65625 L 7.84375 0 L 6.65625 0 L 6.65625 -1.203125 C 6.269531 -0.703125 5.882812 -0.351562 5.5 -0.15625 C 5.125 0.0390625 4.671875 0.140625 4.140625 0.140625 Z M 4.25 -0.90625 C 4.726562 -0.90625 5.148438 -1.03125 5.515625 -1.28125 C 5.890625 -1.539062 6.179688 -1.890625 6.390625 -2.328125 C 6.597656 -2.773438 6.703125 -3.285156 6.703125 -3.859375 C 6.703125 -4.429688 6.597656 -4.9375 6.390625 -5.375 C 6.179688 -5.820312 5.890625 -6.171875 5.515625 -6.421875 C 5.148438 -6.679688 4.726562 -6.8125 4.25 -6.8125 C 3.757812 -6.8125 3.335938 -6.679688 2.984375 -6.421875 C 2.628906 -6.160156 2.359375 -5.804688 2.171875 -5.359375 C 1.984375 -4.921875 1.890625 -4.421875 1.890625 -3.859375 C 1.890625 -3.296875 1.984375 -2.789062 2.171875 -2.34375 C 2.359375 -1.90625 2.628906 -1.554688 2.984375 -1.296875 C 3.335938 -1.035156 3.757812 -0.90625 4.25 -0.90625 Z M 4.25 -0.90625 "/></g></g></g><g fill="#ffffff" fill-opacity="1"><g transform="translate(182.446977, 179.160422)"><g><path d="M 4.421875 0.140625 C 3.691406 0.140625 3.039062 -0.03125 2.46875 -0.375 C 1.90625 -0.726562 1.460938 -1.203125 1.140625 -1.796875 C 0.828125 -2.398438 0.671875 -3.082031 0.671875 -3.84375 C 0.671875 -4.539062 0.8125 -5.195312 1.09375 -5.8125 C 1.382812 -6.425781 1.8125 -6.921875 2.375 -7.296875 C 2.9375 -7.671875 3.613281 -7.859375 4.40625 -7.859375 C 5.050781 -7.859375 5.65625 -7.710938 6.21875 -7.421875 C 6.78125 -7.140625 7.238281 -6.710938 7.59375 -6.140625 C 7.945312 -5.578125 8.125 -4.878906 8.125 -4.046875 L 8.125 -3.625 L 1.84375 -3.625 C 1.863281 -3.363281 1.914062 -3.109375 2 -2.859375 C 2.195312 -2.265625 2.507812 -1.789062 2.9375 -1.4375 C 3.363281 -1.082031 3.859375 -0.90625 4.421875 -0.90625 C 5.003906 -0.90625 5.488281 -1.0625 5.875 -1.375 C 6.269531 -1.6875 6.550781 -2.054688 6.71875 -2.484375 L 7.984375 -2.484375 C 7.828125 -2.003906 7.585938 -1.566406 7.265625 -1.171875 C 6.953125 -0.773438 6.5625 -0.457031 6.09375 -0.21875 C 5.625 0.0195312 5.066406 0.140625 4.421875 0.140625 Z M 1.953125 -4.671875 L 6.859375 -4.671875 C 6.847656 -4.804688 6.828125 -4.9375 6.796875 -5.0625 C 6.773438 -5.195312 6.738281 -5.320312 6.6875 -5.4375 C 6.488281 -5.882812 6.1875 -6.222656 5.78125 -6.453125 C 5.375 -6.691406 4.921875 -6.8125 4.421875 -6.8125 C 3.910156 -6.8125 3.460938 -6.691406 3.078125 -6.453125 C 2.691406 -6.210938 2.390625 -5.875 2.171875 -5.4375 C 2.117188 -5.3125 2.070312 -5.179688 2.03125 -5.046875 C 2 -4.921875 1.972656 -4.796875 1.953125 -4.671875 Z M 1.953125 -4.671875 "/></g></g></g><g fill="#ffffff" fill-opacity="1"><g transform="translate(190.95494, 179.160422)"><g><path d="M 4.109375 0 L 3.125 0 L 0.28125 -7.71875 L 1.59375 -7.71875 L 3.625 -2.015625 L 5.671875 -7.71875 L 6.96875 -7.71875 Z M 4.109375 0 "/></g></g></g><g fill="#ffffff" fill-opacity="1"><g transform="translate(197.92778, 179.160422)"><g/></g></g><g fill="#ffffff" fill-opacity="1"><g transform="translate(201.392425, 179.160422)"><g><path d="M 4.53125 0.15625 C 3.726562 0.15625 3.023438 -0.015625 2.421875 -0.359375 C 1.816406 -0.710938 1.347656 -1.191406 1.015625 -1.796875 C 0.691406 -2.398438 0.53125 -3.09375 0.53125 -3.875 C 0.53125 -4.382812 0.609375 -4.882812 0.765625 -5.375 C 0.921875 -5.875 1.160156 -6.320312 1.484375 -6.71875 C 1.816406 -7.113281 2.226562 -7.425781 2.71875 -7.65625 C 3.21875 -7.882812 3.800781 -8 4.46875 -8 C 4.96875 -8 5.453125 -7.921875 5.921875 -7.765625 C 6.398438 -7.609375 6.820312 -7.363281 7.1875 -7.03125 C 7.5625 -6.695312 7.859375 -6.273438 8.078125 -5.765625 C 8.296875 -5.253906 8.40625 -4.644531 8.40625 -3.9375 L 8.40625 -3.53125 L 2.484375 -3.53125 C 2.503906 -3.363281 2.539062 -3.195312 2.59375 -3.03125 C 2.65625 -2.875 2.71875 -2.734375 2.78125 -2.609375 C 2.96875 -2.242188 3.21875 -1.960938 3.53125 -1.765625 C 3.84375 -1.566406 4.195312 -1.46875 4.59375 -1.46875 C 5.039062 -1.46875 5.414062 -1.582031 5.71875 -1.8125 C 6.019531 -2.050781 6.234375 -2.328125 6.359375 -2.640625 L 8.28125 -2.640625 C 8.132812 -2.140625 7.894531 -1.675781 7.5625 -1.25 C 7.238281 -0.820312 6.828125 -0.476562 6.328125 -0.21875 C 5.828125 0.03125 5.226562 0.15625 4.53125 0.15625 Z M 2.5625 -4.9375 L 6.484375 -4.9375 C 6.472656 -5.039062 6.445312 -5.15625 6.40625 -5.28125 C 6.363281 -5.414062 6.289062 -5.546875 6.1875 -5.671875 C 6.007812 -5.953125 5.773438 -6.160156 5.484375 -6.296875 C 5.191406 -6.441406 4.875 -6.515625 4.53125 -6.515625 C 4.1875 -6.515625 3.867188 -6.441406 3.578125 -6.296875 C 3.296875 -6.160156 3.0625 -5.953125 2.875 -5.671875 C 2.769531 -5.546875 2.695312 -5.414062 2.65625 -5.28125 C 2.613281 -5.15625 2.582031 -5.039062 2.5625 -4.9375 Z M 2.5625 -4.9375 "/></g></g></g><g fill="#ffffff" fill-opacity="1"><g transform="translate(210.054065, 179.160422)"><g><path d="M 2.328125 0 L 0.1875 0 L 2.859375 -3.953125 L 0.171875 -7.84375 L 2.328125 -7.84375 L 4.03125 -5.203125 L 5.78125 -7.84375 L 7.96875 -7.84375 L 5.21875 -3.953125 L 7.96875 0 L 5.78125 0 L 4.046875 -2.671875 Z M 2.328125 0 "/></g></g></g><g fill="#ffffff" fill-opacity="1"><g transform="translate(217.905418, 179.160422)"><g><path d="M 4.515625 0.15625 C 3.734375 0.15625 3.039062 -0.015625 2.4375 -0.359375 C 1.832031 -0.703125 1.363281 -1.179688 1.03125 -1.796875 C 0.695312 -2.421875 0.53125 -3.144531 0.53125 -3.96875 C 0.53125 -4.757812 0.695312 -5.457031 1.03125 -6.0625 C 1.363281 -6.664062 1.828125 -7.140625 2.421875 -7.484375 C 3.023438 -7.828125 3.722656 -8 4.515625 -8 C 5.453125 -8 6.25 -7.753906 6.90625 -7.265625 C 7.5625 -6.785156 7.988281 -6.144531 8.1875 -5.34375 L 6.125 -5.34375 C 5.882812 -6.09375 5.347656 -6.46875 4.515625 -6.46875 C 3.910156 -6.46875 3.414062 -6.238281 3.03125 -5.78125 C 2.644531 -5.320312 2.453125 -4.71875 2.453125 -3.96875 C 2.453125 -3.1875 2.644531 -2.5625 3.03125 -2.09375 C 3.414062 -1.625 3.910156 -1.390625 4.515625 -1.390625 C 4.972656 -1.390625 5.335938 -1.5 5.609375 -1.71875 C 5.890625 -1.9375 6.078125 -2.242188 6.171875 -2.640625 L 8.21875 -2.640625 C 8.09375 -2.054688 7.859375 -1.550781 7.515625 -1.125 C 7.171875 -0.707031 6.738281 -0.390625 6.21875 -0.171875 C 5.707031 0.046875 5.140625 0.15625 4.515625 0.15625 Z M 4.515625 0.15625 "/></g></g></g><g fill="#ffffff" fill-opacity="1"><g transform="translate(226.301619, 179.160422)"><g><path d="M 2.75 0 L 0.859375 0 L 0.859375 -10.65625 L 2.75 -10.65625 L 2.75 -6.84375 C 3.070312 -7.28125 3.398438 -7.582031 3.734375 -7.75 C 4.078125 -7.914062 4.457031 -8 4.875 -8 C 5.59375 -8 6.132812 -7.867188 6.5 -7.609375 C 6.875 -7.359375 7.144531 -7.050781 7.3125 -6.6875 C 7.488281 -6.34375 7.585938 -5.988281 7.609375 -5.625 C 7.640625 -5.269531 7.65625 -4.898438 7.65625 -4.515625 L 7.65625 0 L 5.765625 0 L 5.765625 -4.546875 C 5.765625 -5.304688 5.640625 -5.828125 5.390625 -6.109375 C 5.171875 -6.335938 4.84375 -6.453125 4.40625 -6.453125 C 3.863281 -6.453125 3.460938 -6.296875 3.203125 -5.984375 C 3.046875 -5.796875 2.929688 -5.546875 2.859375 -5.234375 C 2.785156 -4.929688 2.75 -4.519531 2.75 -4 Z M 2.75 0 "/></g></g></g><g fill="#ffffff" fill-opacity="1"><g transform="translate(234.474295, 179.160422)"><g><path d="M 3.109375 0.15625 C 2.378906 0.15625 1.769531 -0.0390625 1.28125 -0.4375 C 0.789062 -0.832031 0.546875 -1.40625 0.546875 -2.15625 C 0.546875 -2.570312 0.625 -2.925781 0.78125 -3.21875 C 0.945312 -3.507812 1.164062 -3.75 1.4375 -3.9375 C 1.6875 -4.113281 1.972656 -4.253906 2.296875 -4.359375 C 2.617188 -4.460938 2.941406 -4.546875 3.265625 -4.609375 L 5.59375 -5.046875 C 5.582031 -5.523438 5.457031 -5.890625 5.21875 -6.140625 C 4.988281 -6.390625 4.640625 -6.515625 4.171875 -6.515625 C 3.816406 -6.515625 3.503906 -6.410156 3.234375 -6.203125 C 2.960938 -5.992188 2.785156 -5.707031 2.703125 -5.34375 L 0.84375 -5.34375 C 0.9375 -5.957031 1.148438 -6.457031 1.484375 -6.84375 C 1.816406 -7.238281 2.222656 -7.53125 2.703125 -7.71875 C 3.179688 -7.90625 3.675781 -8 4.1875 -8 C 4.644531 -8 5.082031 -7.929688 5.5 -7.796875 C 5.914062 -7.671875 6.269531 -7.472656 6.5625 -7.203125 C 6.875 -6.929688 7.09375 -6.617188 7.21875 -6.265625 C 7.351562 -5.921875 7.429688 -5.5625 7.453125 -5.1875 C 7.472656 -4.8125 7.484375 -4.441406 7.484375 -4.078125 L 7.484375 0 L 5.59375 0 L 5.59375 -1.0625 C 5.40625 -0.71875 5.171875 -0.457031 4.890625 -0.28125 C 4.648438 -0.125 4.378906 -0.015625 4.078125 0.046875 C 3.773438 0.117188 3.453125 0.15625 3.109375 0.15625 Z M 3.578125 -1.328125 C 3.953125 -1.328125 4.285156 -1.398438 4.578125 -1.546875 C 4.992188 -1.753906 5.269531 -2.03125 5.40625 -2.375 C 5.550781 -2.71875 5.628906 -3.144531 5.640625 -3.65625 L 3.765625 -3.28125 C 3.492188 -3.238281 3.269531 -3.175781 3.09375 -3.09375 C 2.925781 -3.019531 2.789062 -2.929688 2.6875 -2.828125 C 2.601562 -2.753906 2.539062 -2.664062 2.5 -2.5625 C 2.457031 -2.46875 2.4375 -2.351562 2.4375 -2.21875 C 2.4375 -1.925781 2.546875 -1.703125 2.765625 -1.546875 C 2.984375 -1.398438 3.253906 -1.328125 3.578125 -1.328125 Z M 3.578125 -1.328125 "/></g></g></g><g fill="#ffffff" fill-opacity="1"><g transform="translate(242.451385, 179.160422)"><g><path d="M 2.734375 0 L 0.859375 0 L 0.859375 -7.84375 L 2.734375 -7.84375 L 2.734375 -6.84375 C 3.054688 -7.28125 3.390625 -7.582031 3.734375 -7.75 C 4.078125 -7.914062 4.457031 -8 4.875 -8 C 5.59375 -8 6.132812 -7.867188 6.5 -7.609375 C 6.863281 -7.359375 7.132812 -7.050781 7.3125 -6.6875 C 7.476562 -6.34375 7.570312 -5.988281 7.59375 -5.625 C 7.625 -5.269531 7.640625 -4.898438 7.640625 -4.515625 L 7.640625 0 L 5.765625 0 L 5.765625 -4.546875 C 5.765625 -4.941406 5.734375 -5.257812 5.671875 -5.5 C 5.609375 -5.75 5.507812 -5.953125 5.375 -6.109375 C 5.15625 -6.335938 4.828125 -6.453125 4.390625 -6.453125 C 3.859375 -6.453125 3.460938 -6.296875 3.203125 -5.984375 C 3.046875 -5.796875 2.925781 -5.546875 2.84375 -5.234375 C 2.769531 -4.929688 2.734375 -4.519531 2.734375 -4 Z M 2.734375 0 "/></g></g></g><g fill="#ffffff" fill-opacity="1"><g transform="translate(250.624062, 179.160422)"><g><path d="M 4.453125 2.96875 C 3.921875 2.96875 3.394531 2.894531 2.875 2.75 C 2.363281 2.613281 1.921875 2.359375 1.546875 1.984375 C 1.171875 1.609375 0.929688 1.085938 0.828125 0.421875 L 2.71875 0.421875 C 2.84375 0.796875 3.046875 1.070312 3.328125 1.25 C 3.609375 1.425781 3.976562 1.515625 4.4375 1.515625 C 5.082031 1.515625 5.546875 1.363281 5.828125 1.0625 C 6.117188 0.769531 6.265625 0.394531 6.265625 -0.0625 L 6.265625 -1.15625 C 5.941406 -0.707031 5.601562 -0.40625 5.25 -0.25 C 4.894531 -0.09375 4.484375 -0.015625 4.015625 -0.015625 C 3.335938 -0.015625 2.738281 -0.1875 2.21875 -0.53125 C 1.707031 -0.875 1.304688 -1.34375 1.015625 -1.9375 C 0.734375 -2.53125 0.59375 -3.210938 0.59375 -3.984375 C 0.59375 -4.765625 0.734375 -5.457031 1.015625 -6.0625 C 1.304688 -6.664062 1.707031 -7.140625 2.21875 -7.484375 C 2.738281 -7.828125 3.335938 -8 4.015625 -8 C 4.484375 -8 4.894531 -7.914062 5.25 -7.75 C 5.601562 -7.582031 5.941406 -7.28125 6.265625 -6.84375 L 6.265625 -7.84375 L 8.140625 -7.84375 L 8.140625 -0.5 C 8.140625 0.394531 7.976562 1.09375 7.65625 1.59375 C 7.332031 2.101562 6.890625 2.457031 6.328125 2.65625 C 5.765625 2.863281 5.140625 2.96875 4.453125 2.96875 Z M 4.46875 -1.640625 C 4.875 -1.640625 5.226562 -1.738281 5.53125 -1.9375 C 5.832031 -2.144531 6.066406 -2.425781 6.234375 -2.78125 C 6.410156 -3.144531 6.5 -3.554688 6.5 -4.015625 C 6.5 -4.460938 6.410156 -4.863281 6.234375 -5.21875 C 6.066406 -5.582031 5.832031 -5.867188 5.53125 -6.078125 C 5.226562 -6.285156 4.875 -6.390625 4.46875 -6.390625 C 4.070312 -6.390625 3.722656 -6.28125 3.421875 -6.0625 C 3.117188 -5.851562 2.882812 -5.566406 2.71875 -5.203125 C 2.5625 -4.847656 2.484375 -4.453125 2.484375 -4.015625 C 2.484375 -3.566406 2.5625 -3.160156 2.71875 -2.796875 C 2.882812 -2.441406 3.117188 -2.160156 3.421875 -1.953125 C 3.722656 -1.742188 4.070312 -1.640625 4.46875 -1.640625 Z M 4.46875 -1.640625 "/></g></g></g><g fill="#ffffff" fill-opacity="1"><g transform="translate(259.341583, 179.160422)"><g><path d="M 4.53125 0.15625 C 3.726562 0.15625 3.023438 -0.015625 2.421875 -0.359375 C 1.816406 -0.710938 1.347656 -1.191406 1.015625 -1.796875 C 0.691406 -2.398438 0.53125 -3.09375 0.53125 -3.875 C 0.53125 -4.382812 0.609375 -4.882812 0.765625 -5.375 C 0.921875 -5.875 1.160156 -6.320312 1.484375 -6.71875 C 1.816406 -7.113281 2.226562 -7.425781 2.71875 -7.65625 C 3.21875 -7.882812 3.800781 -8 4.46875 -8 C 4.96875 -8 5.453125 -7.921875 5.921875 -7.765625 C 6.398438 -7.609375 6.820312 -7.363281 7.1875 -7.03125 C 7.5625 -6.695312 7.859375 -6.273438 8.078125 -5.765625 C 8.296875 -5.253906 8.40625 -4.644531 8.40625 -3.9375 L 8.40625 -3.53125 L 2.484375 -3.53125 C 2.503906 -3.363281 2.539062 -3.195312 2.59375 -3.03125 C 2.65625 -2.875 2.71875 -2.734375 2.78125 -2.609375 C 2.96875 -2.242188 3.21875 -1.960938 3.53125 -1.765625 C 3.84375 -1.566406 4.195312 -1.46875 4.59375 -1.46875 C 5.039062 -1.46875 5.414062 -1.582031 5.71875 -1.8125 C 6.019531 -2.050781 6.234375 -2.328125 6.359375 -2.640625 L 8.28125 -2.640625 C 8.132812 -2.140625 7.894531 -1.675781 7.5625 -1.25 C 7.238281 -0.820312 6.828125 -0.476562 6.328125 -0.21875 C 5.828125 0.03125 5.226562 0.15625 4.53125 0.15625 Z M 2.5625 -4.9375 L 6.484375 -4.9375 C 6.472656 -5.039062 6.445312 -5.15625 6.40625 -5.28125 C 6.363281 -5.414062 6.289062 -5.546875 6.1875 -5.671875 C 6.007812 -5.953125 5.773438 -6.160156 5.484375 -6.296875 C 5.191406 -6.441406 4.875 -6.515625 4.53125 -6.515625 C 4.1875 -6.515625 3.867188 -6.441406 3.578125 -6.296875 C 3.296875 -6.160156 3.0625 -5.953125 2.875 -5.671875 C 2.769531 -5.546875 2.695312 -5.414062 2.65625 -5.28125 C 2.613281 -5.15625 2.582031 -5.039062 2.5625 -4.9375 Z M 2.5625 -4.9375 "/></g></g></g></svg>